<?xml version="1.0" encoding="utf-8"?>
<!-- Generator: Adobe Illustrator 23.0.0, SVG Export Plug-In . SVG Version: 6.00 Build 0)  -->
<svg version="1.1" id="Layer_1" xmlns="http://www.w3.org/2000/svg" xmlns:xlink="http://www.w3.org/1999/xlink" x="0px" y="0px"
	 viewBox="0 0 509.7 509.7" style="enable-background:new 0 0 509.7 509.7;" xml:space="preserve">
<style type="text/css">
	.st0{fill:#837CDD;}
</style>
<g>
	<g>
		<path class="st0" d="M496.6,242.3l-28.8-7.6c-3.5-0.9-7.1-1.1-10.7-0.6c-3.7-28.6-13.6-56.1-29-80.5l24.7-41.8
			c5.7-9.6,3.4-15.3,0.5-18.3s-8.5-5.4-18.3,0l-38.2,21.8c-32.9-31.5-75.4-51-120.8-55.4l-12.5-46.8C260.4,2.3,254.9,0,250.6,0
			c-4.2,0-9.7,2.3-12.7,13.1l-13,47.9c-42.9,6.2-82.7,25.9-113.6,56.2L70,93.8c-9.7-5.5-15.3-3.2-18.3,0s-5.2,8.5,0.5,18.3
			l27.1,45.6c-14.1,23.4-23.2,49.6-26.5,76.8c-3.6-0.5-7.2-0.3-10.7,0.7l-28.8,7.6c-11,2.5-13.2,8-13.2,12.2s2.3,9.7,13.1,12.6
			l28.3,7.3c3.3,0.9,6.6,1.3,10,1.4h0.6c2.5,28.2,11,55.5,24.9,80.1L52.3,398c-5.7,9.7-3.4,15.3-0.5,18.3c2,2.1,4.8,3.2,7.7,3.2
			c3.8-0.2,7.4-1.3,10.6-3.3l35.9-20.5c32,34.1,74.9,56.1,121.3,62.1l10.6,38.9c2.9,10.8,8.5,13.1,12.7,13.1s9.7-2.3,12.7-13.1
			l10.3-38.1c48.9-4.2,94.6-25.9,128.6-61.2l32.7,18.6c3.2,2,6.8,3.2,10.6,3.3c2.9,0.1,5.7-1.1,7.7-3.2c2.9-3,5.2-8.5-0.5-18.3
			l-22-37.5c15.4-25.7,24.7-54.6,27.2-84.4h0.6c3.3,0,6.6-0.4,9.8-1.2l28.2-7.4c10.9-2.8,13.1-8.5,13.1-12.5
			C509.6,250.9,507.5,245.2,496.6,242.3z M51.2,259.3c-1.9-0.1-3.7-0.5-5.5-1l-13.1-3.4l13.9-3.7c1.5-0.4,3.2-0.4,4.7,0V259.3z
			 M430.4,115.9l-19.6,33.5l-23,39c-0.8,2.2-3.3,3.3-5.5,2.5c-0.8-0.3-1.5-0.9-2-1.6l-24.8-24.4c-1.8-1.1-2.3-3.5-1.2-5.3
			c0.5-0.8,1.2-1.3,2.1-1.6l7.6-4.4L430.4,115.9z M293.6,124.7l-4.5-16.5l-8.5-30.7c37.6,4.9,72.8,21.2,100.9,46.8L352,141.4
			l-3.9,2.2l-14.8,8.5c-3.9,2.6-5,7.9-2.4,11.8c0.3,0.5,0.7,0.9,1.1,1.3l12.1,11.9l24.7,24.4l12.1,11.9c3.4,3.3,8.8,3.2,12.1-0.2
			c0.5-0.5,0.9-1,1.2-1.6l10.7-18.2l13.7-23.3c12.1,21.4,19.7,45,22.4,69.4c0,2.2,0,4.4,0.6,6.7H293c-3.5-17-17-30.2-34.1-33.3
			v-77.6h26.2c4.7,0.2,8.7-3.5,8.8-8.2C293.9,126.3,293.8,125.5,293.6,124.7z M276.8,254.9c0,14.1-11.5,25.6-25.6,25.6
			c-0.2,0-0.4,0-0.6,0c-14.1-0.3-25.3-12.1-25-26.2c0.3-14.1,12.1-25.3,26.2-25C265.7,229.6,276.8,241,276.8,254.9z M228.6,112.6
			l22-81.1L261,69.9l9.6,35.3l2,7.3c1,2,0.2,4.4-1.8,5.4c-0.8,0.4-1.7,0.5-2.5,0.3h-35.2c-2.2,0.4-4.3-1-4.7-3.2
			C228.1,114.2,228.2,113.3,228.6,112.6z M74.5,116l33.9,19.5l40.2,22.9c2,0.6,3.2,2.8,2.5,4.8c-0.3,0.9-0.8,1.6-1.6,2.1l-24.7,24.4
			c-1.3,1.9-4,2.4-5.9,1.1c-0.7-0.5-1.3-1.2-1.6-2V188L74.5,116z M69.3,239.6c2.3-22.8,9.1-44.9,19.9-65.1v0.3l21.9,37.2
			c2.4,4.1,7.6,5.4,11.7,3c0.6-0.3,1.1-0.8,1.6-1.2l49.2-48.3c3.3-3.3,3.4-8.7,0.1-12.1c-0.5-0.6-1.2-1-1.8-1.4l-45.2-25.6
			c26-24.4,58.4-40.9,93.4-47.4l-7.8,27.9v1.4l-4.4,16.5c-1.2,4.5,1.5,9.2,6,10.5c0.8,0.2,1.7,0.3,2.5,0.3h26.2v77.7
			c-17.1,3.1-30.6,16.3-34.1,33.3H68.7C68.7,244.1,68.7,241.8,69.3,239.6z M102.7,377.3l-28.1,16.4l42.6-72.4
			c0.7-1.4,1.9-2.4,3.4-2.7c1.4,0.1,2.7,0.8,3.6,1.8l24.7,24.4c1.8,1.1,2.3,3.5,1.2,5.3c-0.5,0.8-1.2,1.3-2.1,1.6L102.7,377.3z
			 M207.3,385.1l6.9,25.6l7.9,29.2c-38.4-6.6-73.8-25.1-101.1-52.9v-0.1l35.9-20.5l14.8-8.5c4.1-2.3,5.5-7.5,3.2-11.6
			c-0.4-0.7-0.9-1.3-1.4-1.8l-49.2-48.3c-3.4-3.3-8.8-3.2-12.1,0.2c-0.5,0.5-0.9,1-1.2,1.6l-24.1,41c-10.6-21.5-16.9-44.9-18.3-68.8
			c0-2.3,0-4.6,0-6.8h139.7c3.5,17,17,30.2,34.1,33.3v77.7h-26.5c-4.7-0.2-8.7,3.5-8.8,8.2C207,383.4,207.1,384.3,207.3,385.1z
			 M272.3,397.1l-21.8,81.1l-8.5-30.4l-13.7-50.7c-1-2-0.2-4.4,1.8-5.4c0.8-0.4,1.7-0.5,2.5-0.3H268c2.2-0.4,4.3,1,4.7,3.2
			C272.9,395.5,272.7,396.4,272.3,397.1z M405,379.2l-48.6-27.6c-2-0.6-3.2-2.8-2.5-4.8c0.3-0.9,0.8-1.6,1.6-2.1l13.4-13l11.5-11.3
			c0.9-1,2.2-1.7,3.6-1.8c1.5,0.3,2.8,1.3,3.4,2.7l3.2,5.5l39.3,66.9L405,379.2z M441.5,270.4c-1.6,25.6-8.7,50.6-20.7,73.2v-0.1
			L403.7,314l-0.9-1.5l-8.5-14.7c-2.4-4.1-7.6-5.4-11.7-3c-0.6,0.3-1.1,0.8-1.6,1.2l-12.2,11.9l-12.3,11.9l-24.7,24.7
			c-3.3,3.3-3.4,8.7-0.1,12.1c0.5,0.6,1.2,1,1.8,1.4l14.8,8.5l39.1,22.3c-29.4,29.1-67.7,47.5-108.7,52.4l15.2-56.1
			c1.2-4.5-1.5-9.2-6-10.5c-0.8-0.2-1.7-0.3-2.5-0.3h-26.3v-77.7c17.1-3.1,30.6-16.3,34.1-33.3h148.2
			C441.5,265.7,441.5,268,441.5,270.4z M441.5,263.4v-3.8C441.5,261.5,441.6,261.8,441.5,263.4z M464.1,258.7
			c-1.8,0.5-3.6,0.8-5.4,0.9v-6.9c0,0,0-0.7,0-0.9c0.7-0.2,1.4-0.2,2,0c0.9-0.1,1.8-0.1,2.7,0l13.9,3.7L464.1,258.7z"/>
	</g>
</g>
</svg>
